# AST/ASF file generated using VICON BodyLanguage
# -----------------------------------------------
:version 1.10
:name VICON
:units
  mass 1.0
  length 0.45
  angle deg
:documentation
   .ast/.asf automatically generated from VICON data using
   VICON BodyBuilder and BodyLanguage model FoxedUp or BRILLIANT.MOD
:root
   order TX TY TZ RX RY RZ
   axis XYZ
   position 0 0 0  
   orientation 0 0 0 
:bonedata
  begin
     id 1 
     name lhipjoint
     direction 0.627412 -0.730575 0.26947 
     length 2.49821 
     axis 0 0 0  XYZ
  end
  begin
     id 2 
     name lfemur
     direction 0.34202 -0.939693 0  
     length 6.89165  
     axis 0 0 20  XYZ
    dof rx ry rz
    limits (-160.0 20.0)
           (-70.0 70.0)
           (-60.0 70.0)
  end
  begin
     id 3 
     name ltibia
     direction 0.34202 -0.939693 0   
     length 7.91287   
     axis 0 0 20   XYZ
    dof rx
    limits (-10.0 170.0)
  end
  begin
     id 4 
     name lfoot
     direction 0.0941675 -0.258723 0.96135   
     length 2.16919   
     axis -90 7.62852e-016 20   XYZ
    dof rx rz
    limits (-45.0 90.0)
           (-70.0 20.0)
  end
  begin
     id 5 
     name ltoes
     direction 1.5347e-011 -4.21941e-011 1   
     length 1.08535   
     axis -90 7.62852e-016 20   XYZ
    dof rx
    limits (-90.0 20.0)
  end
  begin
     id 6 
     name rhipjoint
     direction -0.614241 -0.740361 0.27308   
     length 2.46519  
     axis 0 0 0  XYZ 
  end
  begin
     id 7 
     name rfemur
     direction -0.34202 -0.939693 0   
     length 7.27512   
     axis 0 0 -20   XYZ
    dof rx ry rz
    limits (-160.0 20.0)
           (-70.0 70.0)
           (-70.0 60.0)
  end
  begin
     id 8 
     name rtibia
     direction -0.34202 -0.939693 0   
     length 7.89523   
     axis 0 0 -20   XYZ
    dof rx
    limits (-10.0 170.0)
 end
 begin
     id 9 
     name rfoot
     direction -0.0860444 -0.236405 0.967837   
     length 2.29534  
     axis -90 -7.62852e-016 -20   XYZ
    dof rx rz
    limits (-45.0 90.0)
           (-20.0 70.0)
  end
  begin
     id 10 
     name rtoes
     direction -1.53608e-011 -4.21861e-011 1   
     length 1.14915   
     axis -90 -7.62852e-016 -20   XYZ
    dof rx
    limits (-90.0 20.0)
  end
  begin
     id 11 
     name lowerback
     direction -0.00734074 0.997215 -0.0742143   
     length 2.13469   
     axis 0 0 0   XYZ
    dof rx ry rz
    limits (-20.0 45.0)
           (-30.0 30.0)
           (-30.0 30.0)
  end
  begin
     id 12 
     name upperback
     direction 0.0285728 0.99958 -0.00488656   
     length 2.13416   
     axis 0 0 0   XYZ
    dof rx ry rz
    limits (-20.0 45.0)
           (-30.0 30.0)
           (-30.0 30.0)
  end
  begin
     id 13 
     name thorax
     direction 0.0316844 0.999056 0.0297249   
     length 2.14463   
     axis 0 0 0   XYZ
    dof rx ry rz
    limits (-20.0 45.0)
           (-30.0 30.0)
           (-30.0 30.0)
  end
  begin
     id 14 
     name lowerneck
     direction -0.0281545 0.996802 0.0747864   
     length 1.79004   
     axis 0 0 0   XYZ
    dof rx ry rz
    limits (-20.0 45.0)
           (-30.0 30.0)
           (-30.0 30.0)
  end
  begin
     id 15 
     name upperneck
     direction -0.00100185 0.982732 -0.185031   
     length 1.79988   
     axis 0 0 0   XYZ
    dof rx ry rz
    limits (-20.0 45.0)
           (-30.0 30.0)
           (-30.0 30.0)
  end
  begin
     id 16
     name head
     direction 0.00403747 0.997539 -0.0700022  
     length 1.81696  
     axis 0 0 0   XYZ
    dof rx ry rz
    limits (-20.0 45.0)
           (-30.0 30.0)
           (-30.0 30.0)
  end
  begin
     id 17 
     name lclavicle
     direction 0.959882 0.242905 -0.140082  
     length 3.87755  
     axis 0 0 0   XYZ
    dof ry rz
    limits (-20.0 10.0)
           (0.0 20.0)
  end
  begin
     id 18 
     name lhumerus
     direction 1 -4.4895e-011 3.76166e-027   
     length 5.14601   
     axis 180 -30 -90   XYZ
    dof rx ry rz
    limits (-60.0 90.0)
           (-90.0 90.0)
           (-90.0 90.0)
  end
  begin
     id 19
     name lradius
     direction 1 -4.48966e-011 -3.24039e-027   
     length 3.64452   
     axis 180 -30 -90   XYZ
    dof rx
    limits (-10.0 170.0)
  end
  begin
     id 20
     name lwrist
     direction 1 -4.48999e-011 2.57119e-027   
     length 1.82226   
     axis -1.61769e-015 90 90   XYZ
    dof ry
    limits (-180.0 0.0)
 end
  begin
     id 21 
     name lhand
     direction 1 -4.48961e-011 5.13984e-027   
     length 0.56228   
     axis -3.27988e-015 90 90   XYZ
    dof rx rz
    limits (-90.0 90.0)
           (-45.0 45.0)
  end
  begin
     id 22 
     name lfingers
     direction 1 -4.48991e-011 1.02836e-026   
     length 0.453325   
     axis -6.5598e-015 90 90   XYZ
    dof rx
    limits (0.0 90.0)
  end
  begin
     id 23
     name lthumb
     direction 0.707107 -6.34956e-011 0.707107   
     length 0.650886   
     axis -90 45 2.19363e-014   XYZ
    dof rx rz
    limits (-45.0 45.0)
           (-45.0 45.0)
  end
  begin
     id 24 
     name rclavicle
     direction -0.929201 0.345171 -0.132073   
     length 3.55416  
     axis 0 0 0   XYZ 
    dof ry rz
    limits (-10.0 20.0)
           (-20.0 0.0)
  end
  begin
     id 25 
     name rhumerus
     direction -1 -4.48979e-011 4.53734e-027  
     length 5.33913   
     axis 180 30 90   XYZ
    dof rx ry rz
    limits (-90.0 60.0)
           (-90.0 90.0)
           (-90.0 90.0)
  end
  begin
     id 26 
     name rradius
     direction -1 -4.4896e-011 -2.24007e-027   
     length 3.56478   
     axis 180 30 90   XYZ
    dof rx
    limits (-10.0 170.0)
  end
  begin
     id 27 
     name rwrist
     direction -1 -4.48923e-011 2.56866e-027   
     length 1.78239   
     axis -1.61769e-015 -90 -90   XYZ
    dof ry
    limits (-180.0 0.0)
  end
  begin
     id 28
     name rhand
     direction -1 -4.48914e-011 5.13667e-027   
     length 0.857474   
     axis -3.27988e-015 -90 -90   XYZ
    dof rx rz
    limits (-90.0 90.0)
           (-45.0 45.0)
  end
  begin
     id 29
     name rfingers
     direction -1 -4.49112e-011 1.02998e-026   
     length 0.691318   
     axis -6.5598e-015 -90 -90   XYZ
    dof rx
    limits (0.0 90.0)
  end
  begin
     id 30
     name rthumb
     direction -0.707107 -6.34979e-011 0.707107   
     length 0.992598   
     axis -90 -45 -2.19363e-014   XYZ
    dof rx rz
    limits (-45.0 45.0)
           (-45.0 45.0)
  end
:hierarchy
  begin
    root lhipjoint rhipjoint lowerback
    lhipjoint lfemur
    lfemur ltibia
    ltibia lfoot
    lfoot ltoes
    rhipjoint rfemur
    rfemur rtibia
    rtibia rfoot
    rfoot rtoes
    lowerback upperback
    upperback thorax
    thorax lowerneck lclavicle rclavicle
    lowerneck upperneck
    upperneck head
    lclavicle lhumerus
    lhumerus lradius
    lradius lwrist
    lwrist lhand lthumb
    lhand lfingers
    rclavicle rhumerus
    rhumerus rradius
    rradius rwrist
    rwrist rhand rthumb
    rhand rfingers
  end

#!OML:ASF F:\VICON\USERDATA\INSTALL\Justin4\Justin4.ASF
:FULLY-SPECIFIED
:DEGREES
522
root 6.88321 17.3183 14.7078 38.2263 -81.483 -33.9511
lowerback 13.5673 1.83743 3.14263
upperback 2.41174 2.96693 4.58507
thorax -5.14379 1.36249 2.53615
lowerneck -16.7126 3.21694 -2.94916
upperneck 13.3732 5.42529 -2.24556
head 6.81678 2.23656 0.322123
rclavicle -1.09332e-014 -3.18055e-014
rhumerus -22.941 15.9188 -90.4059
rradius 137.728
rwrist 8.97487
rhand -21.727 19.2808
rfingers 7.12502
rthumb 4.67237 -10.6476
lclavicle -1.09332e-014 -3.18055e-014
lhumerus -14.955 -5.43809 84.932
lradius 135.868
lwrist 4.88099
lhand -16.7367 11.1872
lfingers 7.12502
lthumb 9.48943 40.9535
rfemur -9.45978 0.167914 12.1726
rtibia 57.0392
rfoot 11.9964 -4.79597
rtoes 10.5198
lfemur -33.1584 0.977848 -8.40476
ltibia 46.8303
lfoot -3.39983 -14.7689
ltoes -6.26911
523
root 6.76779 17.4259 14.7491 33.7493 -80.878 -29.7132
lowerback 13.8906 1.9376 2.71693
upperback 2.5016 3.04077 4.2295
thorax -5.23087 1.40669 2.37806
lowerneck -16.8108 3.11074 -3.06389
upperneck 13.2411 5.27354 -2.03175
head 6.78123 2.18092 0.39343
rclavicle -1.98785e-015 -1.59028e-014
rhumerus -23.1922 15.1329 -91.5946
rradius 138.098
rwrist 8.80371
rhand -19.914 19.0922
rfingers 7.12502
rthumb 6.42285 -10.7904
lclavicle -1.98785e-015 -1.59028e-014
lhumerus -14.6346 -6.20172 84.4518
lradius 135.83
lwrist 5.18445
lhand -17.3133 11.0156
lfingers 7.12502
lthumb 8.93306 40.8065
rfemur -10.9011 -0.525993 12.5311
rtibia 59.2062
rfoot 11.1483 -3.78218
rtoes 12.943
lfemur -32.0962 1.30592 -8.68479
ltibia 45.5217
lfoot -0.94637 -16.5829
ltoes -4.83409
524
root 6.66018 17.5198 14.7816 29.5654 -80.1545 -25.8106
lowerback 14.3219 2.114 2.28713
upperback 2.61338 3.21379 3.92173
thorax -5.35932 1.49775 2.25125
lowerneck -16.6922 2.89434 -3.3979
upperneck 12.9137 5.00165 -1.78137
head 6.64135 2.06671 0.49286
rclavicle 4.6118e-014 6.04305e-014
rhumerus -23.0589 13.7614 -91.0511
rradius 138.41
rwrist 7.78206
rhand -17.8975 18.7967
rfingers 7.12502
rthumb 8.3693 -11.0175
lclavicle 4.6118e-014 6.04305e-014
lhumerus -14.0451 -6.65916 84.0178
lradius 135.687
lwrist 5.97385
lhand -16.0773 10.076
lfingers 7.12502
lthumb 10.1256 39.8124
rfemur -12.2959 -1.11633 12.9936
rtibia 61.3559
rfoot 9.09445 -3.39431
rtoes 13.3248
lfemur -31.2059 1.88397 -8.88568
ltibia 44.4401
lfoot 1.99483 -18.8525
ltoes -2.48824
525
root 6.55891 17.6066 14.8196 24.8904 -79.2192 -21.1599
lowerback 14.5257 2.26329 1.86165
upperback 2.69491 3.33653 3.50737
thorax -5.3868 1.56596 2.02359
lowerneck -16.4569 2.66232 -3.46178
upperneck 12.5229 4.68042 -1.79814
head 6.4777 1.92034 0.456718
rclavicle 1.33186e-014 -3.97569e-015
rhumerus -23.0566 12.4493 -90.1689
rradius 138.434
rwrist 7.59863
rhand -17.8011 18.8791
rfingers 7.12502
rthumb 8.46225 -10.9314
lclavicle 1.33186e-014 -3.97569e-015
lhumerus -13.1142 -6.67775 83.484
lradius 135.533
lwrist 8.25125
lhand -12.3973 8.18848
lfingers 7.12502
lthumb 13.6741 37.7193
rfemur -13.9649 -2.09187 13.2116
rtibia 63.328
rfoot 7.18008 -4.00055
rtoes 12.3202
lfemur -30.7674 2.17135 -9.16686
ltibia 43.4979
lfoot 5.72756 -20.9338
ltoes 1.35731
526
root 6.45324 17.6914 14.8706 21.0037 -78.1955 -17.323
lowerback 14.6333 2.23142 1.67651
upperback 2.8481 3.24336 3.09755
thorax -5.26654 1.52296 1.71119
lowerneck -15.8799 2.58322 -3.9473
upperneck 11.8424 4.59641 -1.57735
head 6.14716 1.89959 0.579398
rclavicle -4.07509e-014 -5.56597e-015
rhumerus -23.0691 11.4225 -89.8894
rradius 138.495
rwrist 7.74967
rhand -17.1763 19.0067
rfingers 7.12502
rthumb 9.06527 -10.7785
lclavicle -4.07509e-014 -5.56597e-015
lhumerus -12.4694 -7.42931 82.9744
lradius 135.089
lwrist 6.24062
lhand -13.2747 8.33656
lfingers 7.12502
lthumb 12.8284 37.9224
rfemur -15.5218 -3.196 13.3593
rtibia 64.9809
rfoot 5.67694 -4.54589
rtoes 9.59046
lfemur -30.3541 2.08627 -9.35696
ltibia 42.6079
lfoot 9.53064 -22.3712
ltoes 4.04925
527
root 6.34447 17.7729 14.9135 17.6388 -77.1675 -14.2833
lowerback 15.0226 2.21838 1.37015
upperback 3.05817 3.16389 2.82252
thorax -5.25537 1.48519 1.59936
lowerneck -15.0822 2.39189 -5.09642
upperneck 11.0609 4.41922 -0.930956
head 5.72752 1.84361 0.928115
rclavicle -8.54774e-015 7.95139e-016
rhumerus -23.2197 11.1891 -90.0445
rradius 138.412
rwrist 7.76837
rhand -16.6646 18.9167
rfingers 7.12502
rthumb 9.55893 -10.8465
lclavicle -8.54774e-015 7.95139e-016
lhumerus -11.7289 -7.86945 82.4816
lradius 134.71
lwrist 5.62777
lhand -13.9307 8.92364
lfingers 7.12502
lthumb 12.196 38.5481
rfemur -16.78 -4.50036 13.5638
rtibia 66.3021
rfoot 4.52141 -4.54822
rtoes 8.0623
lfemur -29.6034 1.87683 -9.42441
ltibia 41.6702
lfoot 12.8358 -23.1598
ltoes 4.43417
528
root 6.24262 17.8429 14.9499 15.7745 -75.8682 -12.6453
lowerback 15.5326 2.11678 1.10412
upperback 3.10943 2.99291 2.72938
thorax -5.48365 1.40249 1.66951
lowerneck -14.8942 2.24705 -5.57009
upperneck 11.1402 4.31415 -0.956691
head 5.71583 1.76741 0.983877
rclavicle 5.50634e-014 -1.27222e-014
rhumerus -23.75 12.4093 -90.3319
rradius 138.097
rwrist 6.60452
rhand -18.8905 18.8572
rfingers 7.12502
rthumb 7.41087 -10.993
lclavicle 5.50634e-014 -1.27222e-014
lhumerus -11.1921 -8.24527 82.4097
lradius 134.26
lwrist 4.98871
lhand -14.8222 9.86394
lfingers 7.12502
lthumb 11.3362 39.5376
rfemur -18.2668 -5.82007 14.2181
rtibia 67.3364
rfoot 3.27902 -5.12593
rtoes 15.0231
lfemur -29.042 1.66441 -9.17512
ltibia 40.6746
lfoot 14.8908 -23.7114
ltoes -1.13323
529
root 6.1388 17.9111 15.0027 13.2046 -74.7949 -9.96721
lowerback 15.7807 1.9512 0.47182
upperback 3.05875 2.67291 2.52933
thorax -5.68401 1.25731 1.87205
lowerneck -15.8734 2.48146 -4.57439
upperneck 12.5107 4.74393 -2.41507
head 6.37169 1.84282 0.4337
rclavicle -1.70955e-014 2.22639e-014
rhumerus -23.9886 12.9357 -90.0018
rradius 137.86
rwrist 6.15178
rhand -19.1044 18.5962
rfingers 7.12502
rthumb 7.20436 -11.2612
lclavicle -1.70955e-014 2.22639e-014
lhumerus -11.0614 -8.259 82.5615
lradius 134.063
lwrist 5.01665
lhand -15.282 10.468
lfingers 7.12502
lthumb 10.8928 40.1655
rfemur -20.0667 -6.66532 14.517
rtibia 68.0755
rfoot 2.0826 -5.87486
rtoes 21.8119
lfemur -28.6698 1.33301 -9.40912
ltibia 39.7216
lfoot 15.2404 -23.8099
ltoes -13.123
530
root 6.02372 17.9815 15.0654 8.19018 -74.0242 -4.97805
lowerback 16.0929 1.91778 -0.857467
upperback 3.13927 2.38744 2.12768
thorax -5.79554 1.13906 2.25154
lowerneck -15.5571 2.55551 -5.24031
upperneck 12.5055 4.9351 -2.20567
head 6.29424 1.92314 0.619518
rclavicle -8.09054e-014 -9.14409e-015
rhumerus -24.0479 13.4221 -89.7018
rradius 137.593
rwrist 5.45651
rhand -18.8174 18.2823
rfingers 7.12502
rthumb 7.48137 -11.5654
lclavicle -8.09054e-014 -9.14409e-015
lhumerus -10.9856 -8.04665 82.779
lradius 133.988
lwrist 5.71786
lhand -14.5259 9.64964
lfingers 7.12502
lthumb 11.6219 39.3073
rfemur -21.5138 -7.64273 13.8444
rtibia 68.4837
rfoot 1.21842 -6.06164
rtoes 21.3285
lfemur -27.8613 0.723668 -10.5011
ltibia 38.9892
lfoot 14.5187 -23.0079
ltoes -22.2587
531
root 5.90699 18.0415 15.1266 5.04936 -73.1219 -1.99404
lowerback 16.3609 1.92639 -1.60294
upperback 3.3421 2.23873 1.72401
thorax -5.7292 1.07194 2.2735
lowerneck -15.291 2.55304 -5.59638
upperneck 12.4539 4.97643 -2.14447
head 6.22298 1.93493 0.694325
rclavicle 2.41523e-014 -1.07344e-014
rhumerus -23.8173 13.4359 -89.3499
rradius 137.185
rwrist 4.96352
rhand -18.5302 18.0005
rfingers 7.12502
rthumb 7.75864 -11.8371
lclavicle 2.41523e-014 -1.07344e-014
lhumerus -10.8009 -8.38376 83.2005
lradius 133.84
lwrist 5.62549
lhand -13.7598 8.28688
lfingers 7.12502
lthumb 12.3608 37.9015
rfemur -22.8102 -8.76933 13.6483
rtibia 68.5245
rfoot 0.169745 -6.37981
rtoes 20.4742
lfemur -27.0429 0.245868 -11.1278
ltibia 38.6876
lfoot 12.2546 -22.217
ltoes -26.8109
